<?xml version="1.0" standalone="no"?>
<!DOCTYPE svg PUBLIC "-//W3C//DTD SVG 20010904//EN"
 "http://www.w3.org/TR/2001/REC-SVG-20010904/DTD/svg10.dtd">
<svg version="1.0" xmlns="http://www.w3.org/2000/svg"
 width="1280.000000pt" height="1280.000000pt" viewBox="0 0 1280.000000 1280.000000"
 preserveAspectRatio="xMidYMid meet">
<metadata>
Created by potrace 1.15, written by Peter Selinger 2001-2017
</metadata>
<g transform="translate(0.000000,1280.000000) scale(0.100000,-0.100000)"
fill="#000000" stroke="none">
<path d="M5755 11379 c-471 -37 -934 -143 -1372 -314 -151 -59 -506 -234 -648
-320 -353 -213 -595 -403 -890 -699 -351 -352 -586 -676 -805 -1111 -246 -486
-382 -956 -442 -1515 -19 -182 -16 -656 6 -842 72 -621 254 -1175 558 -1694
207 -355 422 -628 729 -929 229 -224 419 -377 681 -549 651 -425 1382 -672
2180 -737 197 -15 697 -7 878 16 974 120 1814 490 2520 1109 1197 1050 1719
2630 1376 4161 -123 547 -361 1080 -687 1537 -145 203 -270 350 -469 549 -372
375 -715 624 -1180 857 -557 280 -1112 433 -1749 482 -153 11 -536 11 -686 -1z
m630 -79 c798 -50 1555 -299 2207 -726 666 -436 1204 -1043 1539 -1738 79
-165 170 -388 172 -425 2 -29 -24 -45 -91 -55 -38 -6 -44 -4 -49 14 -3 11 -8
20 -12 20 -11 0 -31 -54 -31 -86 0 -38 -51 -160 -124 -299 -210 -398 -454
-673 -711 -800 -209 -104 -423 -114 -646 -29 -149 56 -434 214 -664 367 -539
360 -1103 844 -1825 1567 -481 480 -904 936 -1300 1400 -68 80 -128 148 -134
152 -6 4 -13 40 -16 80 -5 70 -6 73 -30 73 -23 0 -26 -5 -32 -54 -3 -29 -12
-58 -20 -62 -7 -5 -83 -47 -168 -94 l-155 -84 -130 -16 -130 -16 -22 28 c-30
36 -53 86 -53 111 0 15 -8 21 -35 24 -43 5 -45 3 -45 -39 0 -58 -34 -90 -172
-159 -70 -35 -135 -64 -143 -64 -8 0 -15 -4 -15 -10 0 -10 -499 -264 -506
-257 -6 5 157 145 279 240 858 669 1959 1006 3062 937z m-1810 -700 c-20 -27
-46 -52 -58 -55 -44 -8 -142 -17 -136 -11 12 12 224 125 227 121 3 -2 -12 -27
-33 -55z m328 -208 l97 -112 3 -360 c1 -198 -1 -359 -5 -358 -4 2 -53 43 -108
92 l-100 89 -1 76 c-5 394 -16 699 -28 721 -15 30 -4 18 142 -148z m-1113 -51
l0 -119 -106 -51 c-59 -28 -108 -51 -111 -51 -2 0 -2 53 -1 118 l3 117 100 52
c55 29 103 52 108 53 4 0 7 -54 7 -119z m-242 -126 l-3 -109 -185 -87 c-102
-48 -188 -88 -192 -88 -5 -1 -8 47 -8 107 l0 107 188 96 c103 53 191 93 195
89 4 -4 6 -56 5 -115z m1615 -118 l114 -129 7 -325 c4 -179 5 -328 2 -330 -3
-3 -61 43 -130 103 l-125 109 0 360 c-1 217 3 355 8 350 5 -6 61 -68 124 -138z
m-1396 -616 l-23 -26 29 -519 c24 -429 26 -520 15 -528 -7 -5 -19 -12 -26 -16
-10 -7 -10 -136 -2 -676 10 -618 9 -670 -6 -687 -15 -17 -16 -63 -5 -606 7
-324 13 -661 14 -751 l2 -164 -75 -23 c-41 -13 -75 -23 -76 -22 -5 4 -23 2174
-36 4194 l-3 433 105 50 105 50 3 -342 2 -342 -23 -25z m743 614 c0 -47 -3
-85 -6 -85 -9 0 -164 143 -164 151 0 8 46 14 128 17 l42 2 0 -85z m-209 49
c11 -13 14 -84 17 -316 5 -321 5 -317 -44 -318 -20 0 -21 7 -27 122 -4 66 -7
213 -7 325 l0 203 24 0 c13 0 30 -7 37 -16z m-88 -151 c4 -87 7 -231 7 -319
l0 -161 -61 -7 c-34 -4 -63 -6 -65 -4 -2 2 -8 119 -13 259 -5 139 -13 269 -16
287 -6 25 -3 38 11 53 15 17 88 46 120 48 7 1 13 -52 17 -156z m-1083 27 l0
-111 -46 -19 c-55 -24 -54 -24 -54 -5 0 8 -4 15 -10 15 -5 0 -10 -10 -10 -23
0 -20 -17 -31 -117 -78 -64 -30 -120 -55 -125 -57 -4 -2 -8 20 -8 50 l0 53
103 102 c80 80 119 110 182 142 44 22 81 40 83 41 1 0 2 -50 2 -110z m1363
-58 c17 -19 18 -37 15 -195 -3 -156 -5 -177 -22 -196 -19 -21 -122 -58 -133
-48 -2 3 -7 135 -10 294 l-6 288 69 -61 c38 -34 77 -71 87 -82z m-939 -774 c4
-486 11 -1378 16 -1983 6 -605 10 -1248 10 -1428 l0 -328 -22 -8 c-13 -5 -26
-6 -29 -2 -3 3 -11 312 -18 686 -12 696 -55 2992 -67 3575 l-7 325 44 22 c24
12 49 22 55 22 8 1 13 -241 18 -881z m-140 670 c3 -84 8 -304 11 -488 3 -184
10 -562 15 -840 5 -278 19 -991 30 -1585 10 -594 22 -1180 25 -1301 l7 -222
-127 -42 c-69 -23 -129 -40 -132 -36 -6 6 -13 341 -58 3096 -8 487 -17 1013
-21 1170 l-6 286 118 56 c66 31 122 57 125 57 4 1 10 -68 13 -151z m2019 -59
l107 -117 -2 -298 -3 -298 -112 98 -113 98 0 326 c0 179 4 322 8 317 4 -6 56
-62 115 -126z m-2273 -1349 c11 -756 25 -1620 30 -1920 5 -300 11 -693 12
-875 l3 -330 -35 -11 c-19 -7 -36 -11 -38 -9 -2 2 -19 750 -37 1662 -19 912
-39 1874 -45 2137 -5 264 -10 537 -10 608 l0 129 43 19 42 19 7 -27 c3 -15 16
-646 28 -1402z m-150 1333 c0 -21 7 -351 15 -733 8 -382 19 -922 25 -1200 6
-278 19 -935 30 -1460 11 -525 20 -987 20 -1027 l0 -71 -141 -47 c-77 -26
-142 -45 -145 -43 -2 3 -8 409 -14 904 -28 2504 -39 3598 -37 3601 6 5 232
112 240 113 4 0 7 -17 7 -37z m-280 -21 c0 -36 -3 -39 -55 -65 -30 -15 -55
-24 -55 -21 0 7 100 124 106 124 2 0 4 -17 4 -38z m9 -379 c1 -170 3 -486 6
-703 9 -608 35 -3088 35 -3304 l0 -192 -86 -28 c-47 -15 -87 -26 -88 -24 -2 1
-11 374 -20 828 -41 1991 -65 3161 -71 3363 l-7 217 32 40 c22 27 55 52 104
74 39 19 76 35 83 35 8 1 12 -78 12 -306z m2106 -218 c3 -264 8 -543 11 -620
6 -127 5 -138 -10 -126 -14 12 -16 70 -16 557 0 533 0 543 -20 554 -17 9 -20
21 -20 88 l0 77 25 -25 24 -25 6 -480z m848 357 l117 -127 0 -268 c0 -148 -4
-267 -8 -265 -4 2 -58 46 -120 98 l-112 95 0 101 c0 55 -3 189 -7 297 -3 117
-2 197 3 196 5 0 62 -58 127 -127z m-755 40 l62 -57 0 -1800 0 -1800 -35 -12
c-34 -12 -35 -11 -36 15 -24 1055 -67 3712 -59 3712 3 -1 33 -27 68 -58z
m-2413 -1927 c14 -665 29 -1419 35 -1675 5 -256 11 -550 12 -654 l3 -189 -118
-40 c-65 -21 -121 -37 -123 -34 -6 6 -12 222 -59 2312 -44 1977 -43 1764 -9
1822 45 78 132 211 177 271 l42 57 7 -330 c4 -181 19 -874 33 -1540z m2640
1725 l123 -110 6 -487 c3 -269 8 -591 11 -718 6 -300 20 -1538 20 -1820 l0
-219 -78 -24 c-43 -13 -81 -22 -83 -19 -6 5 -18 859 -34 2282 -11 1027 -15
1155 -32 1155 -8 0 -9 -152 -4 -497 4 -274 11 -824 16 -1223 5 -399 12 -953
16 -1231 l7 -506 -46 -11 c-25 -7 -48 -12 -51 -12 -3 0 -6 799 -6 1775 0 976
3 1775 6 1775 3 0 61 -49 129 -110z m886 -218 c-6 -2 -7 -100 -4 -249 l6 -246
-106 89 -106 89 -1 270 0 270 110 -110 c61 -61 106 -111 101 -113z m-668 -945
c4 -535 10 -1240 14 -1568 6 -567 5 -596 -12 -603 -10 -3 -20 -5 -22 -2 -2 2
-6 107 -9 232 -7 323 -34 2539 -34 2773 l0 195 28 -28 29 -27 6 -972z m110
877 l47 -41 5 -364 c7 -475 25 -2195 25 -2414 l0 -171 -67 -22 c-37 -12 -69
-19 -71 -17 -3 2 -8 458 -13 1012 -4 554 -10 1252 -13 1551 l-6 543 23 -18
c13 -10 44 -37 70 -59z m745 -340 c5 -271 17 -251 -95 -160 l-60 49 -6 180
c-4 99 -7 214 -7 256 l0 76 82 -82 81 -81 5 -238z m-2005 8 l6 -334 -62 7
c-34 4 -69 13 -77 21 -22 21 -29 604 -8 622 17 13 120 32 129 23 4 -3 9 -156
12 -339z m91 326 c3 -13 6 -166 6 -340 l0 -318 -34 0 -35 0 -3 333 c-2 182 -2
335 0 340 2 4 16 7 31 7 21 0 30 -6 35 -22z m166 -245 c0 -148 3 -291 6 -320
6 -51 6 -52 -27 -72 -19 -12 -50 -21 -70 -21 l-36 0 -6 167 c-4 91 -7 244 -7
340 l0 173 70 0 70 0 0 -267z m-2261 -598 c16 -720 59 -2608 67 -2930 l7 -271
-43 -13 c-23 -7 -48 -15 -55 -17 -30 -12 -247 468 -338 746 -267 814 -269
1735 -5 2550 79 243 181 485 286 680 l57 105 7 -170 c3 -93 11 -399 17 -680z
m3389 741 c23 -18 37 -37 33 -42 -5 -5 -13 -641 -20 -1414 -6 -772 -15 -1408
-20 -1413 -11 -11 -19 385 -26 1228 -3 358 -8 881 -12 1163 -3 281 -4 512 0
512 3 0 23 -15 45 -34z m830 -424 l-3 -212 -86 69 -86 69 -6 168 c-4 92 -7
199 -7 238 l0 71 95 -95 95 -96 -2 -212z m-657 278 c19 -15 19 -48 17 -1339
l-3 -1324 -75 -24 c-41 -12 -77 -23 -79 -23 -5 0 6 1591 16 2317 l6 492 50
-42 c27 -23 58 -49 68 -57z m81 -67 c14 -16 17 -122 27 -838 6 -451 13 -905
16 -1010 3 -104 5 -307 6 -449 1 -279 3 -266 -53 -280 l-28 -6 0 1300 c0 715
4 1300 8 1300 5 0 16 -8 24 -17z m696 -106 l72 -73 -2 -197 -3 -197 -77 61
-78 60 0 210 c0 115 3 209 8 209 4 0 40 -33 80 -73z m-598 23 c25 -22 39 -40
32 -40 -11 0 -13 -40 -7 -222 9 -331 45 -1979 45 -2085 l0 -91 -45 -15 -45
-16 0 112 c0 62 -5 360 -10 662 -5 303 -12 793 -15 1090 -3 297 -8 564 -11
593 -3 28 -2 52 3 52 4 -1 28 -19 53 -40z m79 -72 c5 -13 15 -243 21 -513 6
-269 17 -731 25 -1025 22 -847 22 -800 1 -812 -9 -5 -19 -8 -22 -6 -4 5 -54
2115 -54 2291 0 87 11 111 29 65z m90 -67 l44 -39 5 -1110 5 -1109 -24 -6
c-13 -3 -24 -5 -25 -4 -1 1 -14 468 -28 1037 -14 569 -28 1088 -31 1153 -3 64
-2 117 2 117 4 -1 28 -18 52 -39z m600 -43 l61 -57 0 -185 c0 -103 -3 -186 -6
-186 -3 0 -32 21 -65 46 l-59 47 0 77 c0 42 -3 132 -7 200 -4 83 -3 121 4 119
6 -2 38 -30 72 -61z m-478 -995 c10 -521 18 -1003 19 -1069 l0 -122 -26 -6
c-15 -4 -28 -6 -29 -4 -2 2 -6 494 -10 1093 -7 1043 -6 1089 11 1073 16 -16
18 -85 35 -965z m100 616 c4 -134 9 -589 13 -1010 l6 -766 -35 -10 c-19 -6
-35 -10 -35 -10 -1 4 -40 2016 -40 2061 l0 49 43 -35 42 -36 6 -243z m581 195
c23 -26 40 -382 17 -369 -8 5 -40 28 -71 52 l-58 44 0 186 0 185 48 -40 c26
-22 55 -48 64 -58z m-504 -17 c9 -11 15 -189 22 -658 5 -354 12 -784 16 -954
l7 -311 -36 -11 -35 -11 -6 112 c-3 61 -8 506 -12 989 -6 867 -6 879 13 868
11 -5 25 -16 31 -24z m3852 -77 c0 -38 -2 -70 -4 -70 -2 0 -12 -3 -20 -6 -12
-5 -23 9 -46 60 -17 36 -30 68 -30 70 0 7 31 14 68 15 l32 1 0 -70z m155 -271
c43 -193 44 -201 9 -168 -14 13 -38 44 -52 69 -24 40 -28 59 -34 175 -4 72 -9
159 -12 195 l-5 65 29 -90 c17 -49 46 -160 65 -246z m-3357 240 c31 -28 32
-30 32 -111 0 -46 -3 -120 -7 -165 l-6 -82 -58 45 -59 45 0 175 0 176 33 -27
c17 -15 47 -40 65 -56z m-558 -66 c0 -119 16 -1071 25 -1461 l6 -262 -23 -9
c-22 -8 -23 -6 -30 53 -6 56 -29 1403 -28 1694 l0 122 25 -16 c24 -16 25 -20
25 -121z m73 44 l39 -32 7 -570 c4 -314 7 -698 7 -854 l-1 -285 -34 -8 c-18
-5 -34 -8 -36 -6 -1 2 -7 381 -14 843 -6 462 -14 864 -17 893 -3 28 -2 52 3
52 4 0 25 -15 46 -33z m3523 -34 c-4 -27 -3 -88 2 -138 11 -103 5 -218 -10
-209 -6 4 -14 0 -19 -7 -4 -7 -10 -11 -13 -8 -3 3 -6 77 -6 166 -2 145 0 164
19 202 12 22 24 41 27 41 3 0 3 -21 0 -47z m88 8 c-6 -6 -24 19 -24 34 1 6 7
1 15 -9 8 -11 12 -22 9 -25z m-2996 -63 l44 -37 -1 -152 c-1 -84 -4 -155 -6
-157 -2 -2 -29 15 -59 37 l-56 42 0 166 c0 157 1 165 18 151 9 -8 37 -31 60
-50z m-524 -928 c7 -382 9 -699 4 -704 -4 -6 -8 35 -9 90 0 54 -2 106 -3 114
-2 8 -5 339 -8 735 -2 396 -3 662 -1 590 2 -71 9 -443 17 -825z m106 94 l0
-772 -32 -11 c-17 -6 -32 -10 -33 -9 -2 2 -8 287 -14 633 -6 347 -14 715 -17
818 l-6 189 51 -38 51 -38 0 -772z m3493 715 c4 -30 3 -57 -2 -62 -5 -5 -26
-7 -47 -5 l-39 3 -3 72 -3 72 28 3 c39 5 59 -20 66 -83z m-235 -164 c0 -54 -3
-72 -8 -55 -4 14 -8 84 -7 155 0 117 1 123 7 55 4 -41 8 -111 8 -155z m-2734
196 c14 -16 16 -39 14 -170 l-3 -151 -22 15 c-22 16 -23 22 -23 171 0 85 4
154 8 154 5 0 16 -8 26 -19z m-467 -149 c9 -439 22 -1346 20 -1348 -1 -1 -12
-5 -24 -8 l-23 -7 0 757 c0 606 3 756 13 746 8 -9 13 -55 14 -140z m-2606
-345 l4 -411 -50 3 c-27 1 -53 8 -57 14 -9 14 -17 203 -22 515 -4 256 -3 263
18 295 12 17 37 40 56 50 l35 17 6 -36 c3 -20 8 -221 10 -447z m63 473 l26
-10 0 -440 0 -441 -27 3 -28 3 -7 435 c-4 239 -6 441 -3 448 5 15 7 15 39 2z
m111 -10 c14 -5 29 -20 34 -32 4 -13 11 -209 14 -435 l7 -413 -55 0 -55 0 0
183 c0 100 -3 300 -7 445 -6 261 -6 262 15 262 11 0 32 -4 47 -10z m2517 -52
l27 -23 12 -615 c6 -338 9 -644 7 -679 -3 -64 -3 -64 -40 -77 -21 -7 -39 -10
-42 -6 -2 4 -6 241 -10 527 -3 286 -9 609 -12 719 -8 221 -11 212 58 154z
m501 -12 l47 -38 0 -144 c0 -79 -3 -144 -6 -144 -3 0 -30 17 -59 38 l-54 37
-1 154 c0 121 3 151 13 144 6 -5 33 -27 60 -47z m2576 -126 c0 -52 -3 -102 -8
-109 -12 -19 -17 4 -28 134 -6 81 -5 105 7 127 l15 28 7 -43 c3 -23 7 -85 7
-137z m-2967 53 c16 -18 18 -69 20 -646 l3 -626 -24 -6 c-13 -3 -25 -5 -26 -3
-4 4 -25 982 -25 1170 0 139 1 148 18 139 9 -5 25 -18 34 -28z m2913 -94 c6
-99 4 -124 -8 -136 -12 -12 -16 -1 -27 92 -9 84 -10 112 0 135 7 17 16 30 20
30 4 0 11 -55 15 -121z m-2397 70 l42 -31 0 -139 0 -139 -45 28 -45 27 0 120
c0 66 -3 130 -6 143 -8 30 4 28 54 -9z m2946 -239 c9 -74 16 -150 16 -167 l0
-33 -59 0 -59 0 -6 93 c-3 50 -9 152 -12 226 l-6 135 54 -59 55 -59 17 -136z
m-3406 -357 c-1 -432 -3 -534 -8 -383 -12 337 -11 970 0 970 7 0 9 -201 8
-587z m3180 575 c8 -8 12 -46 12 -105 l0 -93 -34 0 c-41 0 -46 13 -46 122 0
52 4 78 13 81 22 9 43 7 55 -5z m-146 -255 c3 -181 3 -183 -18 -183 -19 0 -22
7 -28 92 -12 173 -8 287 12 313 l17 23 7 -32 c3 -17 8 -113 10 -213z m-2955
-366 c-3 -313 -7 -571 -9 -572 -2 -1 -13 -6 -25 -9 l-23 -7 0 174 c0 95 3 363
7 595 l6 420 25 -16 25 -16 -6 -569z m2722 491 c9 -84 9 -104 -2 -116 -12 -11
-16 1 -26 78 -13 88 -9 140 8 140 4 0 13 -46 20 -102z m-2187 35 l57 -43 3
-115 c2 -63 0 -115 -4 -115 -4 0 -37 14 -73 32 l-65 32 0 134 c0 104 3 132 13
126 6 -4 38 -27 69 -51z m-462 -539 l0 -535 -22 -8 -23 -8 -3 191 c-2 105 0
354 3 553 7 351 8 362 26 352 18 -9 19 -31 19 -545z m2608 361 c0 -36 -17 49
-22 115 l-5 65 14 -80 c7 -44 13 -89 13 -100z m201 -47 l1 -128 -25 0 c-17 0
-25 6 -25 18 0 9 -5 70 -11 135 -10 115 -6 154 12 126 5 -8 9 -71 9 -141 0
-110 2 -128 16 -128 14 0 15 20 10 168 -3 109 -2 151 4 122 5 -25 9 -102 9
-172z m-2743 171 c18 -20 19 -46 22 -509 l3 -487 -23 -7 c-13 -3 -26 -6 -30
-6 -5 0 -8 232 -8 515 0 283 4 515 8 515 5 0 17 -9 28 -21z m2503 -85 c9 -66
9 -89 0 -100 -20 -24 -25 -16 -43 62 -15 70 -15 79 -1 100 8 13 19 24 24 24 4
0 13 -39 20 -86z m-1958 35 l59 -42 0 -98 0 -99 -57 25 c-31 14 -58 27 -59 28
-4 5 -10 227 -6 227 2 0 30 -19 63 -41z m-380 -62 c0 -1 4 -189 8 -417 8 -428
8 -429 -31 -430 -15 0 -17 29 -17 338 -1 373 -9 542 -24 542 -7 0 -8 -147 -3
-445 l7 -445 -23 -9 -23 -8 -6 236 c-4 130 -7 345 -8 479 l-1 243 60 -41 c33
-22 60 -42 61 -43z m2498 -134 c2 -100 -14 -73 -28 47 -11 92 -10 114 1 127
11 14 14 8 19 -48 4 -35 7 -92 8 -126z m-223 95 c16 -74 17 -88 6 -88 -7 0
-32 119 -32 152 0 27 13 -6 26 -64z m-1680 -42 c1 -1 5 -36 9 -78 l7 -77 -69
23 -68 23 -3 97 -3 97 63 -42 c35 -23 64 -43 64 -43z m1644 -2 c12 -67 11 -77
-3 -92 -9 -8 -18 -14 -21 -11 -10 10 -22 149 -14 164 17 29 25 15 38 -61z
m-2166 -339 c4 -212 4 -390 1 -395 -3 -6 -13 -10 -21 -10 -12 0 -14 29 -14
173 0 94 -3 277 -7 406 -6 232 -6 233 14 223 19 -11 20 -25 27 -397z m2370
333 c4 -40 10 -84 13 -97 4 -17 2 -22 -8 -19 -14 5 -43 151 -34 176 11 30 23
6 29 -60z m380 -12 c10 -55 2 -66 -51 -66 l-33 0 0 61 0 60 37 -3 c37 -3 38
-5 47 -52z m-2703 -37 c10 -130 10 -669 0 -669 -17 0 -21 75 -24 418 -1 218 1
331 8 329 6 -2 13 -37 16 -78z m2061 -30 c2 -32 -1 -54 -8 -56 -13 -4 -28 132
-17 150 9 15 20 -28 25 -94z m217 27 c2 -45 -6 -27 -12 29 -4 34 -3 42 3 25 4
-14 8 -38 9 -54z m-2164 -138 c3 -84 7 -229 8 -322 l2 -170 -41 -12 -41 -12
-6 166 c-4 91 -7 250 -7 354 l0 188 39 -19 39 -20 7 -153z m2125 60 c-21 -9
-32 -9 -26 0 3 4 1 26 -4 47 -7 32 -6 43 8 58 16 19 17 17 27 -39 9 -50 9 -60
-5 -66z m-1662 77 l52 -30 0 -53 c0 -52 0 -52 -27 -46 -16 4 -43 13 -60 20
-33 13 -33 14 -33 79 0 37 3 65 8 63 4 -1 31 -16 60 -33z m1436 -40 c7 -66 3
-85 -15 -85 -5 0 -9 34 -9 75 0 41 4 75 9 75 4 0 11 -29 15 -65z m-1829 -172
c13 -351 12 -397 -6 -401 -20 -4 -25 58 -35 397 -7 222 -7 223 13 212 19 -10
21 -24 28 -208z m1785 138 c0 -50 -3 -59 -20 -64 -18 -5 -20 0 -20 47 0 48 12
76 32 76 4 0 8 -26 8 -59z m220 20 c6 -23 5 -31 -5 -31 -13 0 -27 48 -18 63 7
12 12 4 23 -32z m-1929 -147 c12 -289 11 -384 -6 -391 -9 -3 -19 -2 -23 2 -8
7 -30 554 -23 561 3 2 14 -2 25 -10 19 -12 22 -26 27 -162z m2026 144 c-3 -8
-6 -5 -6 6 -1 11 2 17 5 13 3 -3 4 -12 1 -19z m-1570 -23 c35 -21 43 -31 43
-55 0 -34 -15 -38 -69 -19 -28 10 -31 15 -31 55 0 24 3 44 7 44 3 0 26 -11 50
-25z m1426 6 c4 -18 -10 -31 -34 -31 -13 0 -11 24 3 38 17 17 25 15 31 -7z
m-1821 -46 c3 -28 7 -141 7 -252 1 -168 -1 -203 -13 -203 -11 0 -15 31 -20
148 -3 81 -8 196 -11 255 -5 100 -4 108 12 105 13 -2 20 -17 25 -53z m1581
-27 c-11 -19 -31 -5 -37 23 -4 24 -2 35 11 45 16 11 19 9 24 -24 4 -20 5 -40
2 -44z m-1514 48 l28 -15 7 -148 c3 -81 9 -177 12 -213 l6 -65 -40 -11 -39
-10 -7 104 c-7 129 -8 372 -1 372 4 0 19 -7 34 -14z m2545 -83 c9 -107 7 -295
-3 -311 -5 -9 -24 -12 -52 -10 -42 3 -44 4 -50 43 -4 22 -9 104 -13 181 l-7
141 53 16 c29 8 56 16 59 16 3 1 9 -33 13 -76z m-2104 36 c0 -4 3 -15 6 -24 6
-13 1 -16 -22 -13 -25 2 -29 8 -32 36 -3 31 -3 32 22 20 14 -6 26 -15 26 -19z
m1012 7 c4 -18 0 -26 -16 -30 -27 -7 -39 14 -19 36 22 24 30 23 35 -6z m-1356
3 c3 -6 12 -94 18 -196 11 -182 11 -185 -9 -193 -11 -4 -23 -6 -26 -4 -4 2 -9
77 -13 166 -4 90 -9 180 -12 201 -5 32 -3 37 15 37 11 0 23 -5 27 -11z m-3216
-104 c0 -57 -4 -95 -10 -95 -5 0 -10 19 -10 43 0 49 11 147 16 147 2 0 4 -43
4 -95z m3301 76 c4 -3 12 -78 18 -165 12 -167 10 -175 -30 -176 -14 0 -18 16
-23 93 -3 50 -9 132 -13 181 l-6 88 24 -7 c13 -4 27 -10 30 -14z m309 -11 c9
-16 8 -20 -5 -20 -8 0 -15 9 -15 20 0 11 2 20 5 20 2 0 9 -9 15 -20z m887 -2
c-3 -8 -6 -5 -6 6 -1 11 2 17 5 13 3 -3 4 -12 1 -19z m-1126 -78 c12 -139 10
-232 -3 -228 -9 3 -15 38 -20 104 -3 54 -9 123 -12 152 -4 46 -2 53 12 50 13
-3 18 -19 23 -78z m1089 70 c0 -5 -8 -10 -17 -10 -15 0 -16 2 -3 10 19 12 20
12 20 0z m-1033 -149 c7 -152 -10 -185 -21 -39 -9 137 -8 194 5 181 6 -6 13
-69 16 -142z m254 139 c5 0 9 -5 9 -11 0 -15 -43 -7 -48 10 -3 10 0 12 12 8
10 -4 22 -7 27 -7z m-191 -134 c4 -91 2 -120 -8 -124 -7 -2 -15 -2 -18 1 -3 2
-8 60 -11 127 -6 116 -5 122 13 118 17 -3 20 -15 24 -122z m31 87 c-8 -15 -10
-15 -11 -2 0 17 10 32 18 25 2 -3 -1 -13 -7 -23z m1764 -89 c5 -80 4 -119 -4
-127 -6 -6 -11 -19 -11 -28 0 -12 -12 -19 -37 -23 -185 -34 -140 -46 164 -46
l266 0 -7 -92 c-99 -1388 -911 -2657 -2156 -3375 -720 -415 -1540 -621 -2385
-600 -251 7 -353 15 -572 47 -663 98 -1308 348 -1871 728 -107 72 -321 233
-322 242 0 3 91 2 202 -2 680 -24 1853 -68 1962 -74 l128 -6 -7 93 c-4 52 -10
97 -14 102 -4 4 -126 25 -271 48 -146 22 -266 41 -267 42 -2 3 -23 1082 -23
1212 l0 81 43 16 c23 9 317 123 652 253 1355 526 2492 953 3095 1163 394 138
1384 459 1421 462 4 0 10 -52 14 -116z m-1711 45 c10 -101 8 -136 -10 -143
-41 -16 -44 -10 -42 82 l2 87 3 -82 c5 -118 23 -104 23 17 0 111 14 134 24 39z
m52 -37 c5 -48 11 -72 20 -72 9 0 12 15 9 58 l-4 57 9 -59 c5 -33 9 -60 7 -61
-1 -1 -14 -5 -28 -8 -25 -6 -26 -5 -33 46 -3 28 -6 70 -6 92 0 65 19 27 26
-53z m80 8 c4 -41 11 -60 20 -60 11 0 13 12 8 55 -5 38 -3 55 5 55 7 0 11 -21
11 -55 0 -48 -3 -57 -22 -64 -13 -5 -26 -6 -29 -2 -13 12 -22 131 -10 131 5 0
13 -27 17 -60z m98 28 c-5 -7 -7 -27 -5 -45 1 -19 -2 -33 -8 -33 -6 0 -11 10
-11 23 0 12 -3 32 -6 45 -5 18 -2 22 15 22 15 0 20 -4 15 -12z m36 -35 c0 -28
-3 -34 -10 -23 -13 20 -13 60 0 60 6 0 10 -17 10 -37z m115 19 l40 -7 -45 -13
c-25 -7 -52 -15 -61 -18 -12 -3 -18 3 -21 21 -5 22 -2 25 21 24 14 0 44 -3 66
-7z m-4562 -938 l6 -450 -65 -21 c-70 -23 -90 -22 -96 5 -1 9 -1 214 2 454 4
309 8 440 16 448 13 13 115 30 125 21 4 -3 9 -209 12 -457z m77 179 c0 -153 3
-351 7 -440 l6 -162 -27 -7 c-15 -3 -28 -5 -30 -3 -2 2 -6 203 -9 447 l-5 442
29 0 29 0 0 -277z m84 266 c14 -7 27 -18 30 -25 20 -51 61 -469 68 -693 l3
-94 -73 -25 c-40 -13 -75 -22 -77 -20 -3 3 -8 772 -5 861 0 10 25 9 54 -4z
m-640 -2069 c4 -165 5 -304 1 -310 -3 -5 -16 -10 -29 -10 -33 0 -76 -82 -76
-144 0 -39 -3 -46 -22 -51 -13 -3 -149 -27 -303 -54 l-279 -49 -97 90 c-88 81
-300 306 -335 356 -14 20 -1 26 478 216 271 107 527 208 568 225 41 16 78 30
81 30 3 1 9 -134 13 -299z"/>
</g>
</svg>
